#!OML:ASF H:\Terrain\Patient Classification 1\Walking\steve\steve.ASF
:FULLY-SPECIFIED
:DEGREES
230
root 8.11375 16.092 22.9091 4.71807 1.88838 3.19614
lowerback 2.46273 -0.165413 -1.64514
upperback -2.99201 -0.253501 1.06446
thorax -4.45641 -0.0524775 2.03824
lowerneck -11.2535 -1.43516 -3.51926
upperneck 14.4651 -1.74919 2.6235
head 6.29844 -0.828246 1.26152
rclavicle -3.38245e-015 -3.97569e-015
rhumerus -75.5741 -31.7308 -33.0781
rradius 16.0058
rwrist 39.4641
rhand 172.837 -68.4924
rfingers 7.12502
rthumb -161.286 -39.3726
lclavicle -3.38245e-015 -3.97569e-015
lhumerus -14.3399 -10.2506 84.017
lradius 68.2215
lwrist 29.6091
lhand -28.8575 -18.6206
lfingers 7.12502
lthumb -2.21412 11.3477
rfemur -41.8792 2.22522 20.136
rtibia 41.4385
rfoot -5.77801 6.88495
rtoes -2.27968
lfemur 14.3456 -0.293241 -25.8888
ltibia 30.1484
lfoot 16.4481 5.97391
ltoes 14.6389
231
root 8.13153 16.0922 23.144 4.29217 1.76672 3.34341
lowerback 2.82662 -0.0739366 -1.42627
upperback -2.75409 -0.127469 1.00946
thorax -4.42145 -0.000204288 1.85101
lowerneck -11.7531 -1.64694 -3.5814
upperneck 14.6403 -1.9653 2.3417
head 6.44577 -0.956 1.16001
rclavicle -1.02545e-014 -1.51076e-014
rhumerus -74.7991 -32.3292 -33.405
rradius 15.8552
rwrist 40.0631
rhand 172.972 -68.3494
rfingers 7.12502
rthumb -161.156 -39.2422
lclavicle -1.02545e-014 -1.51076e-014
lhumerus -15.274 -10.1 84.4126
lradius 68.342
lwrist 29.7483
lhand -29.0543 -18.7681
lfingers 7.12502
lthumb -2.40412 11.1981
rfemur -41.1584 1.8635 20.2149
rtibia 42.6242
rfoot -6.13674 7.83142
rtoes -0.854332
lfemur 12.8651 -0.307344 -26.0671
ltibia 34.5237
lfoot 17.829 9.07039
ltoes 15.2652
232
root 8.13425 16.106 23.3687 4.25339 1.79476 3.10848
lowerback 2.97105 0.00381906 -1.0796
upperback -2.70013 -0.0038492 1.10351
thorax -4.45214 0.0517277 1.74559
lowerneck -11.2384 -1.38544 -3.07782
upperneck 14.1057 -1.58598 1.56827
head 6.16541 -0.808588 0.866827
rclavicle -1.72964e-014 5.56597e-015
rhumerus -74.0064 -32.9467 -33.8138
rradius 15.8024
rwrist 40.6591
rhand 173.489 -68.4065
rfingers 7.12502
rthumb -160.659 -39.3483
lclavicle -1.72964e-014 5.56597e-015
lhumerus -16.1229 -10.0303 84.9549
lradius 68.1264
lwrist 29.8648
lhand -28.9957 -18.4565
lfingers 7.12502
lthumb -2.34754 11.5104
rfemur -40.5157 1.84966 20.5977
rtibia 43.3912
rfoot -7.05963 7.84969
rtoes -1.51504
lfemur 10.8161 -0.261427 -25.6485
ltibia 38.8178
lfoot 19.2262 12.7574
ltoes 15.8439
233
root 8.13332 16.1337 23.5991 4.24739 1.73664 2.42378
lowerback 3.02892 0.0734459 -0.412051
upperback -2.6259 0.129982 1.2928
thorax -4.41128 0.0996901 1.55713
lowerneck -11.3182 -1.3369 -2.68544
upperneck 13.8046 -1.55006 1.34737
head 6.07782 -0.78647 0.735151
rclavicle -3.36847e-015 1.19271e-014
rhumerus -72.8978 -33.4656 -34.907
rradius 15.846
rwrist 40.7697
rhand 173.95 -68.7374
rfingers 7.12502
rthumb -160.215 -39.7243
lclavicle -3.36847e-015 1.19271e-014
lhumerus -16.8295 -9.87334 85.3274
lradius 67.7415
lwrist 29.9745
lhand -28.4703 -17.6818
lfingers 7.12502
lthumb -1.84013 12.29
rfemur -39.6041 2.07728 21.4277
rtibia 43.7179
rfoot -7.91198 7.8936
rtoes -0.86662
lfemur 8.64466 0.0178341 -24.6707
ltibia 43.1013
lfoot 20.1916 16.386
ltoes 14.7504
234
root 8.13182 16.1777 23.8348 4.17803 1.66704 1.76206
lowerback 3.1661 0.171026 0.27931
upperback -2.58251 0.300515 1.39763
thorax -4.44605 0.164485 1.26549
lowerneck -11.38 -1.15476 -1.73178
upperneck 14.0508 -1.3135 0.342854
head 6.14814 -0.701274 0.280033
rclavicle 2.0363e-014 1.27222e-014
rhumerus -71.8132 -33.8348 -36.2884
rradius 15.9112
rwrist 40.5419
rhand 174.251 -68.9511
rfingers 7.12502
rthumb -159.927 -39.968
lclavicle 2.0363e-014 1.27222e-014
lhumerus -17.6636 -9.81476 85.6903
lradius 67.2077
lwrist 29.8325
lhand -27.9885 -17.0285
lfingers 7.12502
lthumb -1.37479 12.9468
rfemur -38.5694 2.08463 22.3401
rtibia 43.7379
rfoot -8.58141 8.19368
rtoes -0.794726
lfemur 6.57232 0.191772 -23.7373
ltibia 47.1671
lfoot 19.1057 20.7624
ltoes 17.4982
235
root 8.12521 16.2231 24.0621 4.16879 1.78933 1.32073
lowerback 3.35436 0.268238 0.732543
upperback -2.66292 0.460272 1.43866
thorax -4.63699 0.230332 1.04199
lowerneck -11.9203 -1.583 -2.26589
upperneck 14.4909 -1.95407 1.36013
head 6.40334 -0.957199 0.630589
rclavicle -1.44367e-014 0
rhumerus -70.6956 -34.06 -37.8456
rradius 16.068
rwrist 39.7206
rhand 174.595 -69.1662
rfingers 7.12502
rthumb -159.595 -40.2183
lclavicle -1.44367e-014 0
lhumerus -18.5269 -10.2093 86.1825
lradius 66.1358
lwrist 29.6343
lhand -28.0696 -17.2928
lfingers 7.12502
lthumb -1.45313 12.682
rfemur -37.6131 1.902 23.0259
rtibia 43.613
rfoot -9.37899 8.40191
rtoes -1.39963
lfemur 4.43538 0.35066 -22.9399
ltibia 50.8815
lfoot 17.5002 23.488
ltoes 19.4323
236
root 8.11849 16.2602 24.2874 4.17178 1.9887 1.0831
lowerback 3.42083 0.329979 0.916289
upperback -2.71467 0.555639 1.45045
thorax -4.72853 0.27181 0.943893
lowerneck -13.1367 -2.02889 -1.84017
upperneck 15.8117 -2.55136 0.881712
head 7.03794 -1.25658 0.336347
rclavicle 2.02784e-014 -1.43125e-014
rhumerus -69.2447 -34.2492 -39.7264
rradius 16.2236
rwrist 38.5509
rhand 174.587 -69.425
rfingers 7.12502
rthumb -159.603 -40.4763
lclavicle 2.02784e-014 -1.43125e-014
lhumerus -19.2527 -10.7785 86.6536
lradius 64.6862
lwrist 29.6186
lhand -28.4518 -17.9641
lfingers 7.12502
lthumb -1.82229 12.0078
rfemur -36.5915 1.77483 23.4063
rtibia 43.4313
rfoot -10.4416 8.45835
rtoes -2.75885
lfemur 2.33309 0.570963 -22.3667
ltibia 54.2659
lfoot 17.465 22.6836
ltoes 15.8503
